<?xml version="1.0" standalone="no"?>
<!DOCTYPE svg PUBLIC "-//W3C//DTD SVG 20010904//EN"
 "http://www.w3.org/TR/2001/REC-SVG-20010904/DTD/svg10.dtd">
<svg version="1.0" xmlns="http://www.w3.org/2000/svg"
 width="270.000000pt" height="270.000000pt" viewBox="0 0 270.000000 270.000000"
 preserveAspectRatio="xMidYMid meet">
<metadata>
Created by potrace 1.11, written by Peter Selinger 2001-2013
</metadata>
<g transform="translate(0.000000,270.000000) scale(0.100000,-0.100000)"
fill="#000000" stroke="none">
<path d="M1367 2022 c-15 -17 -17 -75 -17 -634 0 -694 -5 -648 78 -648 32 0
45 6 61 26 20 25 21 39 21 239 0 160 4 224 15 263 57 190 288 262 453 141 28
-21 52 -51 74 -97 l33 -66 5 -239 c5 -222 6 -240 24 -253 30 -21 92 -18 117 7
20 20 21 28 16 277 -4 275 -10 308 -61 397 -46 78 -146 151 -259 189 -22 7
-27 -2 95 167 81 113 98 143 98 173 0 50 -28 76 -83 76 -53 0 -46 7 -210 -221
-69 -96 -132 -180 -139 -186 -7 -6 -31 -16 -53 -23 -22 -7 -55 -21 -74 -32
-19 -10 -37 -15 -42 -11 -4 4 -9 103 -11 219 -3 192 -5 214 -22 233 -25 28
-96 29 -119 3z"/>
<path d="M450 2000 c-20 -20 -20 -33 -20 -620 0 -587 0 -600 20 -620 24 -24
86 -27 118 -4 22 15 22 18 22 262 0 208 2 251 16 270 15 22 20 22 220 22 191
0 205 1 224 20 27 27 27 93 0 120 -19 19 -33 20 -223 20 -185 0 -205 2 -220
18 -24 27 -25 316 -1 350 15 22 18 22 269 22 l254 0 21 27 c17 21 20 35 15 63
-14 73 0 70 -367 70 -315 0 -329 -1 -348 -20z"/>
</g>
</svg>
