<?xml version="1.0" standalone="no"?>
<!DOCTYPE svg PUBLIC "-//W3C//DTD SVG 20010904//EN"
 "http://www.w3.org/TR/2001/REC-SVG-20010904/DTD/svg10.dtd">
<svg version="1.0" xmlns="http://www.w3.org/2000/svg"
 width="389.000000pt" height="389.000000pt" viewBox="0 0 389.000000 389.000000"
 preserveAspectRatio="xMidYMid meet">
<metadata>
Created by potrace 1.11, written by Peter Selinger 2001-2013
</metadata>
<g transform="translate(0.000000,389.000000) scale(0.100000,-0.100000)"
fill="#000000" stroke="none">
<path d="M1883 2918 c-154 -197 -289 -390 -407 -586 -34 -57 -38 -69 -37 -133
0 -38 3 -90 6 -114 3 -25 7 -66 11 -92 7 -62 11 -82 40 -179 24 -81 54 -129
54 -87 0 62 101 275 207 437 109 165 283 381 386 476 l38 35 -47 65 c-75 104
-185 240 -194 240 -5 0 -30 -28 -57 -62z"/>
<path d="M2153 2556 c-68 -72 -153 -180 -153 -193 0 -5 37 -43 82 -84 280
-255 453 -589 474 -916 3 -48 7 -89 9 -91 8 -9 66 122 86 193 55 201 20 371
-136 670 -79 152 -285 485 -299 485 -2 0 -30 -29 -63 -64z"/>
<path d="M1895 2234 c-22 -36 -49 -80 -60 -98 -58 -94 -142 -249 -174 -320
-32 -71 -36 -90 -36 -161 1 -67 5 -88 27 -130 141 -270 532 -224 605 72 21 82
11 126 -60 273 -69 141 -240 430 -255 430 -4 0 -25 -30 -47 -66z"/>
<path d="M1326 2058 c-47 -100 -71 -157 -93 -228 -55 -175 -26 -381 77 -550
66 -107 78 -119 140 -126 191 -23 391 8 530 81 l45 23 -54 -2 c-202 -10 -367
125 -488 400 -55 123 -102 328 -105 452 0 23 -2 42 -4 42 -2 0 -23 -42 -48
-92z"/>
<path d="M2180 2059 c43 -71 125 -244 146 -304 74 -216 -109 -500 -396 -613
-105 -41 -180 -54 -312 -56 -71 0 -128 -4 -128 -7 0 -4 21 -21 48 -37 219
-141 503 -157 732 -42 61 31 161 103 200 144 23 26 24 33 23 144 -2 281 -111
556 -319 809 -25 30 -22 10 6 -38z"/>
</g>
</svg>
